<?xml version="1.0" standalone="no"?>
<!DOCTYPE svg PUBLIC "-//W3C//DTD SVG 20010904//EN"
 "http://www.w3.org/TR/2001/REC-SVG-20010904/DTD/svg10.dtd">
<svg version="1.0" xmlns="http://www.w3.org/2000/svg"
 width="512.000000pt" height="512.000000pt" viewBox="0 0 512.000000 512.000000"
 preserveAspectRatio="xMidYMid meet">
<metadata>
Created by potrace 1.16, written by Peter Selinger 2001-2019
</metadata>
<g transform="translate(0.000000,512.000000) scale(0.100000,-0.100000)"
fill="#000000" stroke="none">
<path d="M2210 4515 c-410 -57 -864 -250 -1130 -480 -90 -78 -89 -92 2 -19
205 166 453 297 738 389 225 72 403 104 650 115 l165 7 -165 0 c-91 1 -208 -5
-260 -12z"/>
<path d="M2785 4465 c79 -16 110 -18 80 -6 -11 5 -49 11 -85 14 l-65 6 70 -14z"/>
<path d="M2275 4420 c-554 -87 -1042 -321 -1371 -657 -175 -178 -284 -350
-355 -563 -41 -120 -43 -131 -47 -273 -5 -166 6 -244 45 -322 59 -119 196
-209 351 -230 45 -6 56 -12 72 -38 24 -39 19 -45 -18 -18 -31 22 -67 28 -76
12 -7 -11 71 -62 147 -96 136 -60 299 -85 552 -85 151 0 175 -4 175 -26 0 -11
-16 -14 -64 -14 -56 0 -65 -3 -71 -20 -18 -55 85 -227 179 -300 55 -42 62 -45
120 -45 57 0 68 4 154 57 62 38 113 61 150 68 95 19 151 52 260 154 109 101
194 158 302 202 118 48 160 74 239 150 73 69 83 75 147 90 203 45 281 76 340
131 49 46 61 79 67 183 4 77 13 118 47 214 52 151 60 165 125 236 69 75 80
111 59 202 -26 112 -4 127 77 51 60 -56 115 -129 130 -172 15 -43 -2 -82 -47
-106 -39 -21 -54 -48 -54 -96 0 -37 -16 -69 -34 -69 -7 0 -32 21 -55 46 -35
37 -40 48 -30 60 18 22 5 27 -15 5 -17 -19 -17 -21 12 -58 16 -21 33 -48 37
-60 10 -34 -11 -92 -55 -157 -22 -32 -40 -65 -40 -73 0 -9 20 -35 45 -59 25
-25 48 -57 52 -72 6 -19 10 6 13 78 5 104 6 106 54 188 27 45 56 110 66 145
15 56 21 65 63 92 26 17 49 40 53 52 13 48 -40 140 -155 265 -47 52 -133 118
-152 118 -5 0 -16 -11 -24 -24 -15 -23 -15 -32 0 -110 8 -47 12 -98 9 -112 -4
-15 -31 -53 -60 -85 -43 -47 -57 -71 -74 -131 -75 -254 -95 -288 -189 -313
-94 -26 -142 -54 -195 -112 -28 -31 -116 -123 -196 -205 l-145 -150 -125 -60
c-159 -76 -240 -130 -348 -232 -145 -136 -167 -153 -223 -171 -30 -9 -95 -41
-145 -71 -112 -67 -162 -75 -199 -31 -61 70 -39 329 37 456 12 20 61 77 109
126 47 50 105 120 129 157 23 37 62 85 86 107 51 45 179 114 299 161 88 34
131 60 214 128 68 55 124 81 173 82 48 0 61 -21 46 -78 -24 -96 -123 -164
-438 -297 -243 -103 -263 -117 -346 -236 -31 -44 -77 -94 -105 -115 -55 -40
-85 -89 -118 -198 -21 -69 -29 -192 -11 -181 5 3 32 -6 60 -20 72 -37 86 -26
17 13 -55 31 -57 33 -57 75 0 43 38 196 58 234 6 11 35 40 63 64 28 23 69 68
91 98 94 129 134 157 323 221 463 159 519 199 561 393 22 97 53 147 124 202
88 68 95 85 90 235 -6 201 -5 219 17 248 15 20 29 27 53 27 46 0 58 -22 42
-80 -18 -67 -15 -113 13 -193 14 -39 25 -89 25 -111 0 -55 -19 -139 -41 -183
-16 -31 -27 -39 -74 -52 -68 -20 -82 -41 -94 -135 -5 -39 -17 -84 -27 -99 -22
-35 -198 -233 -262 -296 -47 -45 -52 -48 -67 -32 -17 17 -53 19 -95 6 -19 -6
-12 -8 32 -9 32 -1 58 -6 60 -12 9 -26 54 9 182 142 172 180 187 201 203 297
17 101 31 114 126 110 l71 -3 30 59 c27 51 31 70 31 135 0 72 -3 81 -48 162
-50 92 -55 121 -36 206 10 42 9 54 -5 81 -32 62 -97 67 -139 10 -16 -22 -19
-41 -19 -110 3 -243 -58 -342 -273 -444 -49 -23 -166 -65 -260 -93 -261 -77
-352 -116 -626 -272 -171 -98 -215 -111 -296 -88 -61 17 -137 88 -152 144 -15
56 -14 80 9 168 l20 77 -25 50 c-29 57 -32 110 -9 150 35 58 119 80 148 38 21
-30 20 -57 -4 -118 -16 -42 -20 -72 -19 -173 1 -117 2 -119 10 -54 11 80 36
134 80 172 41 34 65 43 159 61 128 24 150 40 150 106 0 21 14 56 40 97 l39 65
-6 146 c-6 144 -5 148 20 204 21 45 55 86 151 180 68 67 140 149 161 182 21
32 48 74 59 91 19 29 26 33 66 33 52 0 220 -26 267 -41 17 -5 34 -17 37 -25
22 -57 -16 -142 -84 -189 -34 -23 -52 -28 -104 -29 -36 -1 -68 2 -72 7 -4 4 0
23 9 42 22 45 5 45 -22 0 -15 -26 -27 -35 -47 -35 -42 0 -89 -28 -142 -84 -69
-72 -93 -124 -91 -189 2 -45 -3 -59 -32 -100 -36 -51 -36 -54 -39 -264 0 -29
-30 -44 -93 -47 -39 -2 -53 -7 -55 -19 -3 -15 7 -17 76 -17 90 0 92 -1 92 -92
0 -58 -1 -59 -190 -118 -173 -54 -248 -85 -282 -118 -24 -22 -28 -34 -28 -83
0 -69 -16 -89 -61 -72 -32 13 -40 0 -10 -17 30 -15 56 -12 85 11 22 17 26 28
26 70 0 62 15 78 106 112 38 14 129 48 202 76 183 68 200 86 183 192 -8 49 -7
66 6 95 14 29 15 44 5 107 -16 105 2 157 65 184 56 23 129 -9 153 -67 12 -29
11 -32 -34 -73 -42 -40 -46 -47 -46 -91 0 -60 27 -180 51 -228 22 -44 45 -58
92 -58 41 0 52 12 60 63 12 76 69 123 213 177 41 16 82 34 91 42 33 27 45 81
52 235 7 168 17 193 72 193 103 0 292 -139 345 -254 26 -56 30 -87 13 -118 -9
-17 -17 -19 -50 -14 -21 3 -39 4 -39 1 0 -9 82 -45 102 -45 23 0 42 62 35 121
-9 72 -41 126 -131 214 -66 66 -100 90 -179 129 l-98 49 3 35 c4 46 42 75 98
75 46 0 90 -32 90 -67 1 -15 24 -35 88 -74 75 -46 163 -112 370 -276 57 -46
185 -188 233 -260 45 -67 52 -52 12 29 -24 49 -26 57 -12 70 9 9 22 13 30 10
19 -7 96 -123 111 -167 11 -30 9 -33 -22 -60 -50 -41 -45 -77 23 -183 70 -108
111 -206 135 -323 18 -92 34 -120 40 -73 9 59 -37 218 -96 336 -53 107 -63
140 -48 161 7 9 20 15 28 12 37 -15 137 -282 162 -433 34 -207 30 -354 -11
-370 -10 -3 -68 -12 -130 -20 -196 -24 -221 -39 -263 -152 -27 -77 -84 -144
-147 -174 -58 -28 -42 -36 30 -15 72 21 129 72 166 151 17 35 41 71 55 80 29
19 170 49 193 41 24 -9 13 -138 -16 -200 -32 -65 -65 -80 -154 -71 -55 5 -68
4 -65 -7 7 -22 70 -47 119 -48 96 -1 150 77 169 242 9 80 21 108 45 108 21 0
24 -24 14 -97 -21 -149 -76 -277 -137 -315 -32 -20 -39 -20 -111 -9 -107 16
-224 14 -268 -4 -37 -16 -52 -9 -53 21 0 23 -72 93 -115 110 -25 11 -45 22
-45 25 0 4 15 28 33 55 28 42 38 49 84 59 94 21 122 54 144 168 15 81 18 86
64 108 25 12 48 31 52 42 4 12 6 83 4 158 -2 88 1 144 8 158 17 31 48 26 71
-11 11 -18 20 -26 20 -18 0 28 -39 80 -60 80 -30 0 -60 -36 -61 -72 0 -18 -2
-86 -2 -150 -2 -126 -8 -141 -58 -153 -25 -6 -27 -4 -32 37 -4 24 -10 91 -13
149 l-7 106 73 76 c40 43 66 77 58 77 -21 0 -136 -122 -143 -152 -3 -13 -7
-114 -8 -224 -2 -179 -4 -204 -23 -245 -32 -69 -54 -76 -284 -82 -289 -9 -378
-30 -420 -100 -40 -66 -10 -142 66 -167 53 -18 199 -15 279 5 39 10 85 17 104
17 63 -3 121 -56 145 -135 19 -61 11 -101 -26 -132 -41 -35 -101 -34 -176 4
-62 31 -188 74 -266 91 -28 6 -88 36 -143 70 -127 79 -148 86 -219 65 -44 -13
-62 -14 -90 -5 -19 6 -34 15 -34 20 0 4 24 15 52 25 64 21 89 38 198 138 63
57 109 90 175 122 149 72 270 112 364 119 190 15 207 82 74 283 -46 68 -59 68
-28 1 30 -64 31 -106 5 -157 -26 -52 -86 -88 -270 -161 -192 -76 -271 -117
-346 -180 -144 -119 -162 -127 -379 -165 -106 -19 -157 -39 -190 -75 -45 -50
-113 -89 -190 -110 -50 -13 -111 -41 -171 -76 -176 -106 -262 -110 -394 -22
-78 52 -138 131 -201 265 -54 116 -42 109 -195 117 -188 11 -410 88 -532 185
-56 45 -86 48 -80 9 4 -27 73 -81 176 -136 139 -73 318 -122 451 -122 81 0 83
-2 138 -120 88 -188 215 -303 364 -330 90 -17 159 3 293 85 43 26 114 60 159
77 101 37 98 35 186 106 51 42 84 61 108 64 99 12 7 -120 -132 -190 -42 -21
-130 -40 -202 -45 l-43 -2 34 -75 c19 -41 75 -165 126 -275 51 -110 128 -288
171 -395 102 -251 125 -300 144 -300 8 0 15 8 15 18 0 86 -153 483 -311 807
-26 54 -47 101 -45 102 6 6 96 -57 96 -68 0 -6 36 -95 81 -197 45 -103 103
-243 130 -310 60 -150 90 -211 117 -235 72 -65 5 151 -162 519 -68 152 -86
202 -86 238 0 38 -6 52 -35 85 -19 21 -35 41 -35 45 0 3 19 15 41 27 34 17 43
18 50 7 17 -26 29 -84 29 -140 0 -44 10 -82 44 -165 24 -59 69 -181 100 -270
46 -128 67 -174 104 -222 30 -40 48 -56 50 -46 8 39 -90 333 -186 555 -55 127
-65 221 -38 342 18 79 74 191 98 196 30 6 29 -29 -1 -63 -64 -73 -99 -245 -67
-329 9 -24 26 -52 36 -61 11 -10 20 -25 20 -34 0 -9 14 -45 31 -81 17 -36 65
-152 105 -259 41 -107 76 -197 79 -200 3 -2 10 0 17 7 20 20 -74 347 -138 474
-27 53 -23 78 11 78 29 0 34 -13 119 -260 37 -108 71 -202 76 -210 7 -12 15
-12 44 -2 25 9 70 11 163 6 152 -8 213 4 333 66 171 90 300 248 378 465 17 49
19 51 87 74 94 33 165 102 191 186 15 46 26 62 55 80 51 33 87 79 125 160 86
186 105 569 42 840 -36 158 -73 247 -191 464 -92 169 -134 234 -232 356 -40
50 -82 112 -94 138 -25 59 -108 141 -247 246 -255 191 -484 296 -779 357 -178
37 -478 43 -660 14z m198 -44 c5 -11 -5 -16 -36 -20 -225 -27 -275 -43 -104
-31 119 8 161 -2 171 -37 9 -37 -19 -80 -139 -213 -176 -196 -189 -233 -171
-480 l7 -110 -32 -50 c-20 -32 -34 -67 -37 -97 -7 -68 -21 -77 -150 -90 -144
-15 -162 -9 -162 59 0 65 -27 93 -89 93 -72 0 -142 -52 -172 -126 -7 -17 -13
-106 -15 -212 -1 -101 -5 -187 -9 -190 -3 -4 -28 1 -54 11 -61 21 -132 22
-174 1 -18 -9 -63 -47 -102 -84 -103 -101 -231 -156 -407 -176 -55 -6 -67 -12
-97 -42 l-33 -36 -28 31 c-32 36 -65 116 -57 137 11 27 56 31 97 7 38 -21 110
-27 173 -12 28 6 27 7 -67 98 -111 106 -120 130 -62 164 30 17 37 29 46 75 13
63 29 75 60 44 16 -16 31 -21 58 -18 36 3 37 2 45 -37 20 -93 40 -93 48 1 16
171 60 272 169 381 97 98 195 140 230 98 15 -18 6 -46 -36 -110 -47 -71 -69
-162 -54 -225 13 -53 65 -122 111 -145 26 -14 29 -14 39 4 17 33 12 48 -25 71
-46 28 -65 67 -65 129 0 41 9 68 50 145 57 109 62 145 24 183 -22 22 -31 24
-67 19 -71 -12 -149 -62 -249 -161 -51 -51 -105 -96 -119 -100 -43 -11 -77 10
-85 50 -8 45 -24 45 -24 0 0 -43 35 -82 80 -91 16 -4 30 -13 30 -20 0 -29 -49
-122 -75 -142 -36 -29 -51 -28 -72 6 -9 15 -18 29 -20 31 -9 13 -73 -67 -82
-103 -8 -29 -20 -47 -44 -61 -24 -15 -33 -29 -35 -54 -6 -57 6 -79 64 -122 42
-31 54 -46 52 -62 -3 -19 -9 -22 -43 -21 -22 0 -55 7 -73 15 -29 12 -36 12
-62 -3 -27 -15 -28 -15 -34 5 -12 44 -6 129 11 157 15 27 15 30 -1 55 -21 31
-18 57 20 184 109 361 413 702 827 926 72 39 94 46 122 42 30 -5 36 -2 47 20
31 62 415 183 738 233 145 23 137 23 143 6z m332 -7 c113 -18 167 -33 172 -46
3 -8 4 -16 2 -18 -3 -2 -54 5 -114 15 -61 11 -144 20 -186 20 -80 0 -111 14
-86 39 12 12 95 9 212 -10z m346 -78 c243 -85 529 -263 704 -438 35 -35 45
-52 45 -78 0 -28 12 -45 80 -114 58 -58 80 -87 80 -106 0 -37 -24 -31 -62 16
-18 23 -62 61 -98 84 -36 23 -110 79 -164 124 -55 46 -139 109 -188 142 -65
44 -92 68 -103 95 -11 27 -26 40 -71 61 -101 46 -172 21 -218 -77 -12 -25 -32
-62 -44 -82 -22 -35 -24 -53 -30 -222 -9 -220 -5 -214 -145 -272 -79 -32 -102
-47 -161 -107 l-68 -69 -27 19 c-34 26 -91 136 -91 176 0 24 11 43 46 78 41
41 46 51 39 76 -3 15 -27 46 -52 68 -137 123 -136 121 -131 170 7 58 49 119
106 152 37 22 53 25 110 23 117 -6 188 -2 224 13 22 9 57 42 92 86 65 81 80
91 135 91 66 0 258 -76 309 -123 16 -15 22 -17 22 -6 0 29 -144 104 -285 148
-106 32 -145 53 -145 77 0 19 26 18 91 -5z m-471 -1300 c0 -17 -61 -60 -98
-70 -20 -5 -75 -19 -122 -31 -47 -12 -93 -23 -104 -27 -12 -3 -16 -1 -12 6 12
18 119 69 214 101 91 31 122 36 122 21z m-1201 -172 c95 -42 183 -138 162
-178 -20 -36 -68 -43 -248 -35 l-168 6 -120 -44 c-67 -25 -145 -51 -174 -58
-98 -23 -191 2 -191 51 0 21 7 23 127 43 161 27 300 91 389 177 75 73 124 82
223 38z m2051 -61 c0 -32 -32 -81 -74 -113 -40 -31 -171 -79 -192 -71 -26 10
-15 52 27 100 56 63 135 103 207 105 27 1 32 -3 32 -21z m-1356 -36 c3 -5 -13
-26 -35 -48 -23 -21 -65 -70 -94 -109 -30 -38 -85 -103 -123 -142 -76 -81 -78
-82 -182 -57 -83 20 -537 33 -526 15 5 -7 49 -11 124 -11 254 0 444 -32 450
-76 6 -41 -39 -48 -307 -48 -229 0 -249 2 -293 21 -29 14 -58 37 -78 65 -46
62 -76 126 -64 137 5 6 50 22 99 37 85 25 103 27 315 29 277 3 303 9 504 128
88 53 195 82 210 59z m1543 -558 c2 -6 -7 -26 -19 -45 -28 -42 -105 -81 -205
-103 -136 -30 -225 -15 -239 39 -15 60 22 103 100 116 66 11 359 6 363 -7z
m-1999 -96 c17 -17 16 -111 0 -106 -16 6 -44 54 -53 91 -6 24 -4 27 17 27 13
0 29 -5 36 -12z m1309 -230 c12 -13 74 -95 140 -183 138 -185 196 -245 270
-281 79 -39 135 -23 161 46 25 65 -41 122 -158 134 l-55 6 73 -24 c40 -13 82
-32 93 -42 24 -22 25 -60 0 -74 -15 -8 -26 -5 -48 13 -15 13 -50 39 -78 57
-53 36 -185 158 -185 171 0 4 20 -1 45 -12 25 -11 90 -28 144 -39 116 -22 194
-53 221 -88 14 -17 20 -40 20 -77 0 -135 -137 -206 -276 -141 -102 47 -233
195 -312 352 -17 33 -51 91 -76 127 -25 37 -46 69 -46 72 0 15 49 2 67 -17z
m1093 11 c30 -6 56 -19 64 -31 38 -54 -58 -168 -143 -168 -76 0 -131 44 -131
105 0 92 71 124 210 94z m-765 -114 c110 -25 166 -45 218 -77 26 -17 46 -32
44 -34 -2 -2 -28 5 -58 15 -30 11 -101 29 -159 41 -58 12 -128 32 -157 45 -50
23 -143 98 -143 117 0 5 42 -14 93 -41 53 -29 122 -57 162 -66z m-441 45 c20
-22 36 -49 36 -59 0 -27 -77 -183 -97 -198 -25 -19 -60 -16 -84 8 -22 22 -22
24 2 145 12 64 61 144 88 144 10 0 35 -18 55 -40z m826 -195 c8 -10 10 -30 5
-62 l-7 -48 -14 50 c-7 28 -13 56 -14 63 0 16 15 15 30 -3z m174 -35 c11 -11
-35 -130 -82 -209 -21 -36 -71 -95 -115 -137 -136 -128 -294 -188 -436 -165
-83 13 -103 33 -145 145 -19 50 -49 129 -67 174 -21 56 -46 100 -75 133 -60
68 -59 98 2 39 56 -55 68 -78 134 -255 28 -77 59 -152 68 -167 23 -39 69 -51
171 -46 71 3 99 10 159 37 52 25 72 39 72 53 0 17 -2 17 -29 3 -16 -8 -64 -24
-107 -36 -139 -38 -254 -12 -254 59 0 22 3 24 33 19 17 -3 50 -11 73 -18 23
-7 49 -9 60 -5 15 6 7 13 -44 41 -113 60 -144 91 -172 172 -9 26 -8 26 17 -7
47 -60 101 -106 163 -139 52 -28 60 -36 60 -61 0 -25 -4 -29 -40 -35 -22 -4
-54 -4 -72 0 -31 6 -32 5 -14 -10 25 -19 76 -19 151 1 33 9 83 22 110 29 l50
13 -41 1 c-22 1 -49 8 -60 16 -18 13 -16 14 22 15 54 0 157 52 190 95 38 50
65 131 71 211 l6 70 66 -14 c36 -8 70 -18 75 -22z"/>
<path d="M2048 4240 c-199 -42 -346 -99 -489 -192 -34 -22 -92 -49 -128 -60
-138 -42 -287 -141 -325 -216 -14 -27 -41 -57 -63 -72 -50 -33 -132 -109 -145
-135 -6 -12 5 -5 28 17 22 20 70 59 109 85 53 36 75 59 91 93 34 71 148 141
297 183 54 15 103 37 134 59 26 20 62 43 80 52 35 17 108 22 118 7 3 -5 19
-12 36 -16 61 -14 119 -137 104 -224 -7 -43 21 -113 50 -125 25 -9 84 -7 105
4 27 14 50 98 57 205 4 51 12 99 20 112 14 21 12 24 -33 53 -43 27 -54 30 -94
24 -50 -8 -90 -20 -90 -30 0 -3 13 -3 29 1 41 9 90 9 98 1 4 -4 10 -37 14 -74
4 -37 11 -96 14 -132 6 -49 4 -74 -8 -102 -14 -33 -20 -38 -50 -38 -19 0 -40
7 -47 15 -7 9 -16 55 -20 104 -4 49 -15 102 -25 122 -25 49 -73 97 -112 110
-42 14 -44 43 -4 64 43 21 216 65 289 72 53 5 62 4 62 -11 0 -27 37 -56 73
-56 33 0 95 36 126 73 20 25 4 21 -34 -9 -19 -14 -49 -27 -67 -27 -31 -2 -33
0 -31 27 5 61 -22 66 -169 36z"/>
<path d="M1677 3934 c-70 -36 -123 -94 -139 -151 l-14 -48 -70 2 c-52 2 -71 6
-79 19 -24 42 -40 50 -94 48 -51 -2 -53 -3 -72 -42 -25 -50 -76 -103 -156
-164 -65 -49 -123 -119 -123 -147 0 -10 21 6 53 40 28 30 79 76 112 102 33 25
78 69 99 96 39 52 91 91 120 91 9 0 20 -10 25 -23 14 -36 31 -44 116 -51 44
-4 85 -12 92 -18 8 -6 13 -43 15 -96 l3 -87 76 1 c53 1 89 7 115 20 36 18 39
22 38 59 -1 22 -8 59 -15 82 -12 40 -11 44 9 66 31 33 28 47 -13 47 -26 0 -39
-6 -51 -25 -16 -25 -16 -29 2 -147 7 -48 6 -48 -29 -63 -19 -8 -53 -17 -76
-21 -38 -6 -41 -5 -41 17 0 13 -2 69 -5 123 -4 86 -2 106 15 142 21 42 64 78
133 110 38 18 50 44 20 44 -10 -1 -40 -12 -66 -26z"/>
<path d="M807 3478 c-31 -42 -50 -78 -40 -77 11 0 76 100 70 106 -3 2 -16 -11
-30 -29z"/>
<path d="M1999 3429 c-18 -18 -19 -23 -6 -42 8 -12 22 -23 31 -25 42 -9 64 58
27 78 -26 13 -28 13 -52 -11z m46 -29 c0 -22 -29 -18 -33 3 -3 14 1 18 15 15
10 -2 18 -10 18 -18z"/>
<path d="M762 3335 c-12 -12 -33 -49 -46 -81 -12 -33 -44 -92 -70 -133 -26
-40 -45 -75 -43 -78 7 -6 111 154 134 207 11 25 30 54 42 64 20 18 29 47 14
45 -5 -1 -18 -11 -31 -24z"/>
<path d="M860 3220 c0 -5 5 -10 10 -10 6 0 10 5 10 10 0 6 -4 10 -10 10 -5 0
-10 -4 -10 -10z"/>
<path d="M1093 3193 c-14 -21 -19 -56 -23 -156 l-5 -129 -37 -33 c-38 -35 -77
-51 -102 -42 -8 3 -31 31 -50 61 -37 58 -54 67 -77 40 -11 -13 -9 -14 12 -9
21 5 28 -1 58 -60 22 -44 41 -67 56 -71 27 -7 117 36 158 74 l28 26 -7 138
c-7 136 -7 139 16 163 19 21 21 25 7 25 -9 0 -25 -12 -34 -27z"/>
<path d="M3572 4028 c-17 -17 -15 -39 2 -32 29 11 216 -144 216 -179 0 -10 5
-15 10 -12 32 20 -29 93 -140 168 -25 16 -52 38 -60 49 -12 15 -18 16 -28 6z"/>
<path d="M2697 3872 c-20 -22 -22 -62 -4 -85 6 -8 39 -37 72 -62 33 -25 72
-64 87 -86 29 -44 29 -43 -20 -136 -12 -23 -22 -46 -22 -50 1 -14 70 101 70
116 0 10 7 8 25 -9 57 -54 82 29 46 150 -16 52 -30 76 -60 103 -79 71 -161 96
-194 59z m147 -43 c57 -39 83 -81 67 -115 -16 -36 -53 -30 -113 19 -59 48 -79
87 -58 111 19 24 52 19 104 -15z"/>
<path d="M1475 2710 c-8 -14 3 -30 21 -30 8 0 14 9 14 20 0 21 -24 28 -35 10z"/>
<path d="M1918 2513 c-25 -29 -39 -61 -29 -67 8 -6 71 64 71 78 0 13 -28 5
-42 -11z"/>
<path d="M3470 2110 c0 -16 -4 -30 -10 -30 -5 0 -10 -4 -10 -10 0 -5 19 -10
43 -9 37 0 40 2 20 11 -16 8 -23 20 -23 40 0 15 -4 28 -10 28 -5 0 -10 -13
-10 -30z"/>
<path d="M3150 1626 c0 -12 63 -97 68 -92 2 3 -9 22 -24 43 -38 51 -44 58 -44
49z"/>
<path d="M3260 1441 c0 -13 29 -35 37 -28 7 8 -15 37 -28 37 -5 0 -9 -4 -9 -9z"/>
<path d="M3355 1377 c6 -14 45 -41 51 -34 2 2 -10 13 -26 25 -16 12 -27 16
-25 9z"/>
<path d="M4014 1799 c-3 -5 8 -9 25 -9 39 0 61 -9 61 -26 0 -14 -36 -18 -125
-15 -26 1 -27 -1 -10 -8 23 -11 90 -13 122 -5 24 7 41 41 26 54 -13 12 -92 19
-99 9z"/>
<path d="M2839 1694 c-13 -36 -24 -94 -16 -94 8 0 39 111 33 117 -3 3 -10 -7
-17 -23z"/>
<path d="M3854 1504 c-30 -86 -71 -168 -109 -218 -24 -33 -42 -62 -39 -65 8
-8 69 65 103 124 31 52 67 162 57 172 -3 3 -9 -3 -12 -13z"/>
<path d="M3085 4406 c133 -44 236 -86 321 -131 38 -20 60 -29 49 -20 -55 47
-337 163 -435 179 -19 3 10 -9 65 -28z"/>
<path d="M2748 4193 c23 -2 59 -2 80 0 20 2 1 4 -43 4 -44 0 -61 -2 -37 -4z"/>
<path d="M4072 3695 c82 -103 104 -134 162 -227 26 -43 49 -78 52 -78 8 0 -48
104 -95 175 -25 39 -77 102 -115 140 l-68 70 64 -80z"/>
<path d="M4110 3096 c0 -2 29 -47 64 -100 88 -131 135 -276 101 -310 -28 -28
-56 -38 -87 -32 -73 15 -94 -54 -36 -120 38 -43 82 -64 136 -64 46 0 65 18 65
63 0 24 -9 40 -47 72 l-47 42 25 17 c31 20 33 46 11 131 -30 113 -117 269
-166 296 -10 5 -19 8 -19 5z m144 -492 c68 -35 93 -77 61 -104 -17 -14 -93 1
-132 26 -28 18 -56 71 -49 91 8 19 70 12 120 -13z"/>
<path d="M3138 2369 c-44 -25 -3 -93 42 -69 26 14 26 56 1 70 -23 12 -22 12
-43 -1z m32 -34 c0 -8 -7 -15 -15 -15 -8 0 -15 7 -15 15 0 8 7 15 15 15 8 0
15 -7 15 -15z"/>
<path d="M2305 2280 c-34 -23 -145 -158 -175 -215 l-22 -40 24 26 c13 14 53
65 90 112 37 47 77 93 90 101 13 8 52 19 88 24 l65 10 -65 1 c-49 1 -72 -4
-95 -19z"/>
<path d="M2837 2182 c-23 -25 -21 -45 4 -68 19 -17 23 -17 47 -3 33 18 39 44
16 70 -22 24 -46 24 -67 1z m53 -32 c0 -13 -7 -20 -20 -20 -19 0 -27 20 -13
33 13 14 33 6 33 -13z"/>
<path d="M4187 2162 c-10 -10 -17 -25 -17 -33 0 -8 6 -5 16 9 8 12 24 22 35
22 10 0 19 5 19 10 0 17 -36 11 -53 -8z"/>
<path d="M2586 2033 c10 -7 21 -13 24 -13 3 0 14 6 24 13 15 11 12 12 -24 12
-36 0 -39 -1 -24 -12z"/>
<path d="M3582 1914 c-18 -8 -67 -21 -110 -29 l-77 -15 70 4 c39 3 96 14 128
26 32 12 67 20 78 17 10 -3 17 -1 13 4 -8 13 -64 9 -102 -7z"/>
<path d="M3525 1830 c-93 -21 -52 -27 51 -8 61 11 64 11 98 -15 40 -31 46 -33
46 -13 0 24 -50 56 -84 55 -17 -1 -67 -10 -111 -19z"/>
</g>
</svg>